#!OML:ASF F:\VICON\USERDATA\INSTALL\rory3\rory3.ASF
:FULLY-SPECIFIED
:DEGREES
64
root 0.004123695490591384 17.998415108197417 25.971726801467632 -3.3894838178496873 0.3834692676179938 -3.931540221653835
lfemur -1.854627933732397 -0.544202920766174 -16.524497742381236
ltibia 56.78287270204504
lfoot -0.03048365757866378 -7.611829956545863
ltoes -6.088556218275693
rfemur -15.534976160075306 4.474600596590389 28.071913394087957
rtibia 31.863125646512366
rfoot -4.762291067973987 -5.006840333948375
rtoes 4.969080482385406
lowerback 10.013936884630416 -1.1164995267905002 0.4754140899883449
upperback 0.381466195408259 -0.054052651370768756 2.212809662869751
thorax -5.152608516852358 -0.7613972571374347 2.6549618694547936
lowerneck -16.083892399994586 -2.873116676993756 -2.9990967267993547
upperneck 21.291501294760785 -3.256102045748437 1.1383495602150462
head 9.260207212920566 -1.7523633209476608 0.4229238232016005
lclavicle -4.519242887505303e-16 -7.862612629911996e-16
lhumerus -32.13476317180858 3.5875555608073837 79.80964514666547
lradius 29.714655241508346
lwrist 7.0222740925547935
lhand -27.82116242752644 22.244904036162207
lfingers 7.12502
lthumb -1.2604657526538634 52.35538556234875
rclavicle -4.529624845639523e-16 -7.762439235313553e-16
rhumerus -33.383545343014646 -23.444186996142548 -73.80808367666633
rradius 19.133934249577663
rwrist 11.500376495941929
rhand -17.680999217512657 22.675751542413806
rfingers 7.12502
rthumb 8.452008228720263 -7.280356161183775
65
root -0.036036502644071655 18.051120950225215 26.500945747004298 -3.529552436260159 -0.21614104191122863 -4.459440086080416
lfemur -7.016213899697025 1.3112082013031015 -15.283064259967293
ltibia 63.15565004010624
lfoot -1.416237483361118 -6.422860585794663
ltoes -6.098743487929374
rfemur -12.782689601132178 4.762173324861061 29.194929931950018
rtibia 31.405473219357418
rfoot -5.92948550801408 -5.3018451392869235
rtoes 3.887059855113953
lowerback 10.107558820379213 -0.8994040015840521 1.3696319526564695
upperback 0.3960136257406261 0.290101054609855 2.20054019094184
thorax -5.2529603569686865 -0.5747559711404227 2.22545418070819
lowerneck -16.037412650824155 -2.900392983213136 -3.0173535131472464
upperneck 21.334946406774566 -3.3348846113231274 1.3159499730364423
head 9.276525906132457 -1.7770328618957663 0.46986384526843616
lclavicle -4.519242861983646e-16 -7.862613597193696e-16
lhumerus -32.62815043128627 3.7472525297070085 79.69280475304653
lradius 29.131620121279482
lwrist 6.478012478474241
lhand -27.816695850567935 22.20701715725321
lfingers 7.12502
lthumb -1.272576530375673 52.27515295749381
rclavicle -4.529624556794117e-16 -7.762438966691078e-16
rhumerus -32.01329936118276 -21.82250438275028 -75.10658138549447
rradius 19.691951325868825
rwrist 10.342166170259553
rhand -17.700914612068058 22.60371193555153
rfingers 7.12502
rthumb 8.42757643864539 -7.277244304016984
66
root -0.057643945906059424 18.077567776214316 27.02583656567591 -3.548954963545881 -0.9368900724634999 -4.81505611726894
lfemur -12.131039848904623 2.953650947534491 -14.659813504582822
ltibia 66.59530331620334
lfoot -3.5924057740640096 -5.530914629297663
ltoes -5.641013912048625
rfemur -10.467944573740011 5.007974653326155 29.97561989320569
rtibia 31.0368020862476
rfoot -6.674906577362746 -5.456683017545754
rtoes 2.6522399570646686
lowerback 10.151833987505796 -0.6179682007744443 2.100343646011419
upperback 0.3951015994937689 0.6476544116994423 2.1334406472834386
thorax -5.328873022360729 -0.343482752867168 1.743750061570351
lowerneck -15.998777283332206 -2.9276022419120675 -3.0412106635039544
upperneck 21.345174911287057 -3.4000300494555766 1.4572434220255086
head 9.293460039614892 -1.7968965768492093 0.508219489472662
lclavicle -4.519240009943041e-16 -7.862611423819071e-16
lhumerus -33.070143086485565 4.046717696241781 79.57165732087564
lradius 28.51745776640266
lwrist 6.000370276003722
lhand -27.800174802571203 22.17480928654872
lfingers 7.12502
lthumb -1.2769153032040201 52.20205756265819
rclavicle -4.529624316182727e-16 -7.762438786273401e-16
rhumerus -30.67295383865963 -20.036815520255864 -76.5970284698662
rradius 20.45072109006884
rwrist 8.616938551029182
rhand -17.7268421709234 22.559074344588126
rfingers 7.12502
rthumb 8.410334356041533 -7.245529569821513
67
root -0.06542205580472721 18.07357698974311 27.511399956933676 -3.4656411365397255 -1.7116584898267557 -5.1742119682098675
lfemur -16.756507113160822 4.153502780344166 -14.299473540890498
ltibia 67.34566876517124
lfoot -3.8551563924081425 -4.887121396661505
ltoes -4.531682076577868
rfemur -8.664830147295637 5.205950896929446 30.611819634243755
rtibia 30.775941939141767
rfoot -7.221462525942665 -5.4473210542384365
rtoes 1.7350788050037371
lowerback 10.169424510473727 -0.29244923430924635 2.736369630465034
upperback 0.38017294942656044 1.0082169852014697 2.0456080322217973
thorax -5.3835202447934085 -0.08106293898099942 1.2059966440230676
lowerneck -15.977147078138204 -2.944269636940061 -3.048521121915484
upperneck 21.334027007536644 -3.4342552550916716 1.5333973850481835
head 9.307537378542836 -1.8094887874565024 0.5258075937468101
lclavicle -4.519239341320349e-16 -7.86261082730829e-16
lhumerus -33.39047731582595 4.411230598472361 79.50235616986501
lradius 27.90728284390559
lwrist 5.656828489425306
lhand -27.790301800969 22.101198478179782
lfingers 7.12502
lthumb -1.2868977974025786 52.080009278224814
rclavicle -4.529624097532865e-16 -7.762438600363482e-16
rhumerus -29.442614050633413 -18.114790578866412 -77.98732571262082
rradius 21.39357198537287
rwrist 6.465807322471198
rhand -17.758740133522345 22.540924454107465
rfingers 7.12502
rthumb 8.396561422713477 -7.20622426805351
